<svg width="400" height="250" viewBox="0 0 400 250" fill="none" xmlns="http://www.w3.org/2000/svg">
<rect x="1" y="1" width="398" height="248" rx="39" stroke="#BF2E58" stroke-width="2" stroke-linejoin="round"/>
<g style="mix-blend-mode:darken">
<rect x="1" y="1" width="398" height="248" rx="39" fill="#D4CACD"/>
<rect x="1" y="1" width="398" height="248" rx="39" stroke="white" stroke-width="2" stroke-linejoin="round"/>
</g>
<path d="M29 75L43.5 90.5C54.8932 97.1469 62.0711 98.6314 75.5 99.5C93.4696 99.4238 101.894 98.2933 116.5 96C143.1 90.4278 154.922 89.7727 175.5 93.5C197.463 104.06 197.661 115.667 202 134.5V155.5C202.668 166.242 204.574 172.142 210 182.5C211.971 184.618 213.686 185.767 215.545 186.498C217.654 187.003 219.803 187.503 222 188C219.432 187.547 217.416 187.234 215.545 186.498C179.808 177.95 155.721 168.035 111.5 144.5C85.5326 129.471 71.0171 120.609 46 96L29 75Z" fill="#BB2649"/>
<path d="M29 75L43.5 90.5C54.8932 97.1469 62.0711 98.6314 75.5 99.5C93.4696 99.4238 101.894 98.2933 116.5 96C143.1 90.4278 154.922 89.7727 175.5 93.5C197.463 104.06 197.661 115.667 202 134.5V155.5C202.668 166.242 204.574 172.142 210 182.5C213.953 186.75 216.88 187.097 222 188C182.581 179.073 158.331 169.424 111.5 144.5C85.5326 129.471 71.0171 120.609 46 96L29 75Z" stroke="white" stroke-linecap="round" stroke-linejoin="round" stroke-dasharray="1 1"/>
<g filter="url(#filter0_bdi_5_11)">
<path d="M16 9C16 200.533 202.354 6.64702 202.354 147.355C202.354 288.064 385 9 385 9" stroke="#BB2649" stroke-width="2" stroke-linejoin="round"/>
</g>
<g filter="url(#filter1_bdi_5_11)">
<path d="M29 74C76.1203 149.382 227.211 195.009 221.861 185.832" stroke="#BB2649" stroke-width="2"/>
</g>
<defs>
<filter id="filter0_bdi_5_11" x="11" y="4.45513" width="378.835" height="191.545" filterUnits="userSpaceOnUse" color-interpolation-filters="sRGB">
<feFlood flood-opacity="0" result="BackgroundImageFix"/>
<feGaussianBlur in="BackgroundImageFix" stdDeviation="2"/>
<feComposite in2="SourceAlpha" operator="in" result="effect1_backgroundBlur_5_11"/>
<feColorMatrix in="SourceAlpha" type="matrix" values="0 0 0 0 0 0 0 0 0 0 0 0 0 0 0 0 0 0 127 0" result="hardAlpha"/>
<feOffset dy="4"/>
<feGaussianBlur stdDeviation="2"/>
<feComposite in2="hardAlpha" operator="out"/>
<feColorMatrix type="matrix" values="0 0 0 0 0 0 0 0 0 0 0 0 0 0 0 0 0 0 0.25 0"/>
<feBlend mode="normal" in2="effect1_backgroundBlur_5_11" result="effect2_dropShadow_5_11"/>
<feBlend mode="normal" in="SourceGraphic" in2="effect2_dropShadow_5_11" result="shape"/>
<feColorMatrix in="SourceAlpha" type="matrix" values="0 0 0 0 0 0 0 0 0 0 0 0 0 0 0 0 0 0 127 0" result="hardAlpha"/>
<feOffset dy="4"/>
<feGaussianBlur stdDeviation="2"/>
<feComposite in2="hardAlpha" operator="arithmetic" k2="-1" k3="1"/>
<feColorMatrix type="matrix" values="0 0 0 0 0 0 0 0 0 0 0 0 0 0 0 0 0 0 0.25 0"/>
<feBlend mode="normal" in2="shape" result="effect3_innerShadow_5_11"/>
</filter>
<filter id="filter1_bdi_5_11" x="24.152" y="69.47" width="202.849" height="126.53" filterUnits="userSpaceOnUse" color-interpolation-filters="sRGB">
<feFlood flood-opacity="0" result="BackgroundImageFix"/>
<feGaussianBlur in="BackgroundImageFix" stdDeviation="2"/>
<feComposite in2="SourceAlpha" operator="in" result="effect1_backgroundBlur_5_11"/>
<feColorMatrix in="SourceAlpha" type="matrix" values="0 0 0 0 0 0 0 0 0 0 0 0 0 0 0 0 0 0 127 0" result="hardAlpha"/>
<feOffset dy="4"/>
<feGaussianBlur stdDeviation="2"/>
<feComposite in2="hardAlpha" operator="out"/>
<feColorMatrix type="matrix" values="0 0 0 0 0 0 0 0 0 0 0 0 0 0 0 0 0 0 0.25 0"/>
<feBlend mode="normal" in2="effect1_backgroundBlur_5_11" result="effect2_dropShadow_5_11"/>
<feBlend mode="normal" in="SourceGraphic" in2="effect2_dropShadow_5_11" result="shape"/>
<feColorMatrix in="SourceAlpha" type="matrix" values="0 0 0 0 0 0 0 0 0 0 0 0 0 0 0 0 0 0 127 0" result="hardAlpha"/>
<feOffset dy="4"/>
<feGaussianBlur stdDeviation="2"/>
<feComposite in2="hardAlpha" operator="arithmetic" k2="-1" k3="1"/>
<feColorMatrix type="matrix" values="0 0 0 0 0 0 0 0 0 0 0 0 0 0 0 0 0 0 0.25 0"/>
<feBlend mode="normal" in2="shape" result="effect3_innerShadow_5_11"/>
</filter>
</defs>
</svg>
